<svg width="28" height="20" viewBox="0 0 28 20" fill="none" xmlns="http://www.w3.org/2000/svg">
<rect width="28" height="20" rx="2" fill="white"/>
<mask id="mask0_290_1913" style="mask-type:alpha" maskUnits="userSpaceOnUse" x="0" y="0" width="28" height="20">
<rect width="28" height="20" rx="2" fill="white"/>
</mask>
<g mask="url(#mask0_290_1913)">
<rect width="28" height="20" fill="#19BFBF"/>
<path fill-rule="evenodd" clip-rule="evenodd" d="M17.0975 17.7643L16.0555 16.7223C16.0189 16.6857 15.9913 16.6411 15.975 16.592L15.4091 14.8944C15.3638 14.7584 15.2365 14.6666 15.0931 14.6666C14.8764 14.6666 14.7174 14.8703 14.77 15.0805L15.2874 17.1502C15.3158 17.2638 15.2825 17.384 15.1997 17.4667L14.9022 17.7643C14.772 17.8944 14.561 17.8944 14.4308 17.7643L14.0975 17.4309C14.035 17.3684 13.9998 17.2836 13.9998 17.1952V16.0786C13.9998 16.0269 13.9878 15.9759 13.9646 15.9296L13.4253 14.8509C13.3688 14.738 13.2534 14.6666 13.1272 14.6666H11.4119C11.3601 14.6666 11.3091 14.6787 11.2628 14.7018L10.1233 15.2715C10.0443 15.3111 9.98413 15.3804 9.95618 15.4643L9.37683 17.2023C9.34888 17.2862 9.28875 17.3555 9.20968 17.395L8.14891 17.9254C8.05507 17.9723 7.94461 17.9723 7.85077 17.9254L6.85077 17.4254C6.73784 17.369 6.6665 17.2535 6.6665 17.1273V15C6.6665 14.8159 6.81574 14.6666 6.99984 14.6666H8.33317C8.51727 14.6666 8.6665 14.5174 8.6665 14.3333V13.3874C8.6665 13.3516 8.67228 13.316 8.68361 13.282L9.2572 11.5612C9.30257 11.4251 9.42995 11.3333 9.57342 11.3333H10.5878C10.6396 11.3333 10.6906 11.3212 10.7369 11.2981L11.9295 10.7018C11.9757 10.6787 12.0268 10.6666 12.0785 10.6666H12.9998C13.1839 10.6666 13.3332 10.5174 13.3332 10.3333V10.138C13.3332 10.0496 13.3683 9.96484 13.4308 9.90233L13.6728 9.66031C13.8337 9.49943 14.1049 9.54344 14.2067 9.74694L14.5744 10.4824C14.6308 10.5953 14.7463 10.6666 14.8725 10.6666H16.4263C16.5697 10.6666 16.6971 10.5748 16.7425 10.4387L17.2572 8.89455C17.3026 8.75844 17.4299 8.66663 17.5734 8.66663H18.3332C18.5173 8.66663 18.6665 8.51739 18.6665 8.33329C18.6665 8.1492 18.5173 7.99996 18.3332 7.99996H17.6665C17.4824 7.99996 17.3332 7.85072 17.3332 7.66663V6.74532C17.3332 6.69357 17.3452 6.64253 17.3684 6.59624L17.8924 5.54818C17.9566 5.41985 17.9314 5.26486 17.83 5.16341L17.5689 4.90233C17.4387 4.77215 17.2276 4.77215 17.0975 4.90233L16.0975 5.90233C16.035 5.96484 15.9998 6.04962 15.9998 6.13803V7.2792C15.9998 7.31503 15.9941 7.35062 15.9827 7.38461L15.4091 9.10537C15.3638 9.24148 15.2364 9.33329 15.0929 9.33329H14.8046C14.7162 9.33329 14.6314 9.29817 14.5689 9.23566L14.0959 8.76271C14.0344 8.70119 13.9998 8.61775 13.9998 8.53075C13.9998 8.28688 13.7432 8.12828 13.5251 8.23733L12.8814 8.55918C12.7531 8.62335 12.5981 8.59819 12.4966 8.49674L12.0975 8.09759C12.035 8.03508 11.9998 7.95029 11.9998 7.86189V6.8047C11.9998 6.71629 12.035 6.63151 12.0975 6.56899L13.3332 5.33329L15.2775 3.38893C15.3141 3.35234 15.3587 3.32477 15.4078 3.30841L17.2819 2.68373C17.3158 2.6724 17.3514 2.66663 17.3873 2.66663H18.4605C18.5868 2.66663 18.7022 2.73796 18.7586 2.85089L19.298 3.92958C19.3211 3.97586 19.3332 4.0269 19.3332 4.07865V5.86189C19.3332 5.95029 19.3683 6.03508 19.4308 6.09759L19.8542 6.52095C19.9434 6.61023 19.9746 6.74229 19.9347 6.86207L19.4137 8.42509C19.3661 8.5677 19.4199 8.72447 19.545 8.80785L21.3332 9.99996L22.3288 10.4978C22.5081 10.5874 22.5683 10.814 22.4571 10.9808L21.3892 12.5827C21.3527 12.6374 21.3332 12.7017 21.3332 12.7676V14.4264C21.3332 14.5698 21.2414 14.6972 21.1052 14.7426L19.4642 15.2896C19.3803 15.3176 19.311 15.3777 19.2714 15.4568L18.6907 16.6182C18.6747 16.6503 18.6536 16.6795 18.6283 16.7049L17.5689 17.7643C17.4387 17.8944 17.2276 17.8944 17.0975 17.7643ZM11.3332 17.3333C11.7014 17.3333 11.9998 17.0348 11.9998 16.6666C11.9998 16.2984 11.7014 16 11.3332 16C10.965 16 10.6665 16.2984 10.6665 16.6666C10.6665 17.0348 10.965 17.3333 11.3332 17.3333ZM9.33317 8.66663C9.33317 9.03482 9.03469 9.33329 8.6665 9.33329C8.29831 9.33329 7.99984 9.03482 7.99984 8.66663C7.99984 8.29844 8.29831 7.99996 8.6665 7.99996C9.03469 7.99996 9.33317 8.29844 9.33317 8.66663Z" fill="white"/>
<path fill-rule="evenodd" clip-rule="evenodd" d="M9.96497 8.73701C9.98811 8.69072 10.0002 8.63969 10.0002 8.58794V8.07865C10.0002 8.0269 9.98811 7.97586 9.96497 7.92958L9.5747 7.14903C9.46388 6.9274 9.62505 6.66663 9.87284 6.66663H10.3335C10.5176 6.66663 10.6668 6.81586 10.6668 6.99996V8.58794C10.6668 8.63969 10.6789 8.69072 10.702 8.73701L11.0923 9.51755C11.2031 9.73919 11.0419 9.99996 10.7942 9.99996H9.87284C9.62505 9.99996 9.46388 9.73919 9.5747 9.51755L9.96497 8.73701Z" fill="white"/>
</g>
</svg>
