<svg width="28" height="20" viewBox="0 0 28 20" fill="none" xmlns="http://www.w3.org/2000/svg">
<rect x="0.25" y="0.25" width="27.5" height="19.5" rx="1.75" fill="white" stroke="#F5F5F5" stroke-width="0.5"/>
<mask id="mask0_290_1126" style="mask-type:alpha" maskUnits="userSpaceOnUse" x="0" y="0" width="28" height="20">
<rect x="0.25" y="0.25" width="27.5" height="19.5" rx="1.75" fill="white" stroke="white" stroke-width="0.5"/>
</mask>
<g mask="url(#mask0_290_1126)">
<rect x="18.6665" width="9.33333" height="20" fill="#E3283E"/>
<path fill-rule="evenodd" clip-rule="evenodd" d="M0 20H9.33333V0H0V20Z" fill="#128A60"/>
<path d="M12.998 11.0649L13.3326 10.4882L12.998 11.0649ZM13.2401 11.9761L13.8167 12.3107L13.8167 12.3107L13.2401 11.9761ZM12.3289 12.2181L12.6634 11.6415H12.6634L12.3289 12.2181ZM15.7939 12.1431L16.1531 12.7047L15.7939 12.1431ZM14.8731 11.9407L14.3114 12.2999H14.3114L14.8731 11.9407ZM15.0755 11.0199L15.4347 11.5815L15.0755 11.0199ZM12.6665 9.33335C12.6665 8.59697 12.0696 8.00002 11.3332 8.00002V9.33335H12.6665ZM13.3326 10.4882C12.9318 10.2557 12.6665 9.82494 12.6665 9.33335H11.3332C11.3332 10.3188 11.8677 11.1798 12.6634 11.6415L13.3326 10.4882ZM13.8167 12.3107C14.1863 11.6737 13.9695 10.8578 13.3326 10.4882L12.6634 11.6415L12.6634 11.6415L13.8167 12.3107ZM11.9943 12.7948C12.6312 13.1643 13.4471 12.9476 13.8167 12.3107L12.6634 11.6415L11.9943 12.7948ZM9.99984 9.33335C9.99984 10.8139 10.8049 12.1046 11.9943 12.7948L12.6634 11.6415C11.8679 11.1799 11.3332 10.3189 11.3332 9.33335H9.99984ZM11.3332 8.00002C10.5968 8.00002 9.99984 8.59697 9.99984 9.33335H11.3332V8.00002ZM17.9998 9.33335C17.9998 8.59697 17.4029 8.00002 16.6665 8.00002V9.33335H17.9998ZM16.1531 12.7047C17.2606 11.9964 17.9998 10.7518 17.9998 9.33335H16.6665C16.6665 10.2777 16.1756 11.1076 15.4347 11.5815L16.1531 12.7047ZM14.3114 12.2999C14.7082 12.9202 15.5327 13.1015 16.1531 12.7047L15.4347 11.5815V11.5815L14.3114 12.2999ZM14.7163 10.4582C14.0959 10.855 13.9147 11.6795 14.3114 12.2999L15.4347 11.5815L14.7163 10.4582ZM15.3332 9.33335C15.3332 9.80453 15.0898 10.2193 14.7163 10.4582L15.4347 11.5815C16.1757 11.1075 16.6665 10.2776 16.6665 9.33335H15.3332ZM16.6665 8.00002C15.9301 8.00002 15.3332 8.59697 15.3332 9.33335H16.6665V8.00002Z" fill="#8C9157"/>
<path fill-rule="evenodd" clip-rule="evenodd" d="M13.9998 10.6667C14.7362 10.6667 15.3332 9.77126 15.3332 8.66669C15.3332 7.56212 14.7362 6.66669 13.9998 6.66669C13.2635 6.66669 12.6665 7.56212 12.6665 8.66669C12.6665 9.77126 13.2635 10.6667 13.9998 10.6667Z" fill="#C59262"/>
</g>
</svg>
