<svg width="28" height="20" viewBox="0 0 28 20" fill="none" xmlns="http://www.w3.org/2000/svg">
<rect width="28" height="20" rx="2" fill="white"/>
<mask id="mask0_290_0" style="mask-type:alpha" maskUnits="userSpaceOnUse" x="0" y="0" width="28" height="20">
<rect width="28" height="20" rx="2" fill="white"/>
</mask>
<g mask="url(#mask0_290_0)">
<rect x="13.3335" width="14.6667" height="20" fill="#1AB11F"/>
<path fill-rule="evenodd" clip-rule="evenodd" d="M0 20H9.33333V0H0V20Z" fill="#262626"/>
<path fill-rule="evenodd" clip-rule="evenodd" d="M9.3335 20H18.6668V0H9.3335V20Z" fill="#DC0D18"/>
<path opacity="0.75" d="M12.998 11.0648L13.3326 10.4882L12.998 11.0648ZM13.2401 11.9761L13.8167 12.3106L13.8167 12.3106L13.2401 11.9761ZM12.3289 12.2181L12.6634 11.6415H12.6634L12.3289 12.2181ZM15.7939 12.1431L16.1531 12.7047L15.7939 12.1431ZM14.8731 11.9407L14.3114 12.2999H14.3114L14.8731 11.9407ZM15.0755 11.0198L15.4347 11.5815L15.0755 11.0198ZM12.6665 9.33333C12.6665 8.59695 12.0696 8 11.3332 8V9.33333H12.6665ZM13.3326 10.4882C12.9318 10.2556 12.6665 9.82491 12.6665 9.33333H11.3332C11.3332 10.3188 11.8677 11.1798 12.6634 11.6415L13.3326 10.4882ZM13.8167 12.3106C14.1863 11.6737 13.9695 10.8578 13.3326 10.4882L12.6634 11.6415L12.6634 11.6415L13.8167 12.3106ZM11.9943 12.7947C12.6312 13.1643 13.4471 12.9476 13.8167 12.3106L12.6634 11.6415L11.9943 12.7947ZM9.99984 9.33333C9.99984 10.8139 10.8049 12.1046 11.9943 12.7947L12.6634 11.6415C11.8679 11.1799 11.3332 10.3189 11.3332 9.33333H9.99984ZM11.3332 8C10.5968 8 9.99984 8.59695 9.99984 9.33333H11.3332V8ZM17.9998 9.33333C17.9998 8.59695 17.4029 8 16.6665 8V9.33333H17.9998ZM16.1531 12.7047C17.2606 11.9964 17.9998 10.7517 17.9998 9.33333H16.6665C16.6665 10.2777 16.1756 11.1076 15.4347 11.5815L16.1531 12.7047ZM14.3114 12.2999C14.7082 12.9202 15.5327 13.1015 16.1531 12.7047L15.4347 11.5815V11.5815L14.3114 12.2999ZM14.7163 10.4582C14.0959 10.855 13.9147 11.6795 14.3114 12.2999L15.4347 11.5815L14.7163 10.4582ZM15.3332 9.33333C15.3332 9.80451 15.0898 10.2193 14.7163 10.4582L15.4347 11.5815C16.1757 11.1075 16.6665 10.2775 16.6665 9.33333H15.3332ZM16.6665 8C15.9301 8 15.3332 8.59695 15.3332 9.33333H16.6665V8Z" fill="white"/>
<path fill-rule="evenodd" clip-rule="evenodd" d="M13.9998 10.6667C14.7362 10.6667 15.3332 9.77124 15.3332 8.66667C15.3332 7.5621 14.7362 6.66667 13.9998 6.66667C13.2635 6.66667 12.6665 7.5621 12.6665 8.66667C12.6665 9.77124 13.2635 10.6667 13.9998 10.6667Z" fill="white" fill-opacity="0.5"/>
</g>
</svg>
