<svg width="28" height="20" viewBox="0 0 28 20" fill="none" xmlns="http://www.w3.org/2000/svg">
<rect width="28" height="20" rx="2" fill="white"/>
<mask id="mask0_290_1902" style="mask-type:alpha" maskUnits="userSpaceOnUse" x="0" y="0" width="28" height="20">
<rect width="28" height="20" rx="2" fill="white"/>
</mask>
<g mask="url(#mask0_290_1902)">
<rect width="28" height="20" fill="#19BFBF"/>
<path fill-rule="evenodd" clip-rule="evenodd" d="M10.0002 16.041C10.0002 16.0137 10.0035 15.9866 10.0101 15.9601L10.6668 13.3333L11.31 10.7608C11.3253 10.6993 11.3228 10.6347 11.3028 10.5745L10.7105 8.79761C10.6825 8.71374 10.6224 8.64441 10.5433 8.60488L9.51776 8.09209C9.40483 8.03563 9.3335 7.92021 9.3335 7.79395V5.41198C9.3335 5.36023 9.34554 5.3092 9.36869 5.26291L10.0002 3.99996L10.5747 2.85089C10.6312 2.73796 10.7466 2.66663 10.8728 2.66663H14.3335C14.5176 2.66663 14.6668 2.81586 14.6668 2.99996V3.66663C14.6668 3.85072 14.8161 3.99996 15.0002 3.99996H15.6668C15.8509 3.99996 16.0002 4.1492 16.0002 4.33329V5.12728C16.0002 5.25354 16.0715 5.36896 16.1844 5.42542L18.4826 6.57449C18.5955 6.63096 18.6668 6.74638 18.6668 6.87264V7.92127C18.6668 7.97302 18.6548 8.02406 18.6316 8.07034L18.0398 9.25412C18.0138 9.306 17.9748 9.35022 17.9265 9.3824L16.0738 10.6175C16.0256 10.6497 15.9865 10.6939 15.9606 10.7458L14.7064 13.2541C14.6805 13.306 14.6414 13.3502 14.5932 13.3824L12.7405 14.6175C12.6922 14.6497 12.6532 14.6939 12.6272 14.7458L11.4256 17.149C11.3692 17.262 11.2537 17.3333 11.1275 17.3333H10.3335C10.1494 17.3333 10.0002 17.1841 10.0002 17V16.041Z" fill="white"/>
</g>
</svg>
