<svg width="28" height="20" viewBox="0 0 28 20" fill="none" xmlns="http://www.w3.org/2000/svg">
<rect x="0.25" y="0.25" width="27.5" height="19.5" rx="1.75" fill="white" stroke="#F5F5F5" stroke-width="0.5"/>
<mask id="mask0_290_771" style="mask-type:alpha" maskUnits="userSpaceOnUse" x="0" y="0" width="28" height="20">
<rect x="0.25" y="0.25" width="27.5" height="19.5" rx="1.75" fill="white" stroke="white" stroke-width="0.5"/>
</mask>
<g mask="url(#mask0_290_771)">
<path fill-rule="evenodd" clip-rule="evenodd" d="M0 6.66667H28V0H0V6.66667Z" fill="#38BB56"/>
<path fill-rule="evenodd" clip-rule="evenodd" d="M0 20H28V13.3333H0V20Z" fill="#DE1B27"/>
<path fill-rule="evenodd" clip-rule="evenodd" d="M1.66683 5.33334C1.48273 5.33334 1.3335 5.48258 1.3335 5.66668V6.33334C1.3335 6.51744 1.48273 6.66668 1.66683 6.66668H2.3335C2.51759 6.66668 2.66683 6.51744 2.66683 6.33334V5.66668C2.66683 5.48258 2.51759 5.33334 2.3335 5.33334H1.66683ZM4.3335 5.33334C4.1494 5.33334 4.00016 5.48258 4.00016 5.66668V6.33334C4.00016 6.51744 4.1494 6.66668 4.3335 6.66668H5.00016C5.18426 6.66668 5.3335 6.51744 5.3335 6.33334V5.66668C5.3335 5.48258 5.18426 5.33334 5.00016 5.33334H4.3335ZM6.66683 5.66668C6.66683 5.48258 6.81607 5.33334 7.00016 5.33334H7.66683C7.85092 5.33334 8.00016 5.48258 8.00016 5.66668V6.33334C8.00016 6.51744 7.85092 6.66668 7.66683 6.66668H7.00016C6.81607 6.66668 6.66683 6.51744 6.66683 6.33334V5.66668ZM9.66683 5.33334C9.48273 5.33334 9.3335 5.48258 9.3335 5.66668V6.33334C9.3335 6.51744 9.48273 6.66668 9.66683 6.66668H10.3335C10.5176 6.66668 10.6668 6.51744 10.6668 6.33334V5.66668C10.6668 5.48258 10.5176 5.33334 10.3335 5.33334H9.66683ZM12.0002 5.66668C12.0002 5.48258 12.1494 5.33334 12.3335 5.33334H13.0002C13.1843 5.33334 13.3335 5.48258 13.3335 5.66668V6.33334C13.3335 6.51744 13.1843 6.66668 13.0002 6.66668H12.3335C12.1494 6.66668 12.0002 6.51744 12.0002 6.33334V5.66668ZM15.0002 5.33334C14.8161 5.33334 14.6668 5.48258 14.6668 5.66668V6.33334C14.6668 6.51744 14.8161 6.66668 15.0002 6.66668H15.6668C15.8509 6.66668 16.0002 6.51744 16.0002 6.33334V5.66668C16.0002 5.48258 15.8509 5.33334 15.6668 5.33334H15.0002ZM17.3335 5.66668C17.3335 5.48258 17.4827 5.33334 17.6668 5.33334H18.3335C18.5176 5.33334 18.6668 5.48258 18.6668 5.66668V6.33334C18.6668 6.51744 18.5176 6.66668 18.3335 6.66668H17.6668C17.4827 6.66668 17.3335 6.51744 17.3335 6.33334V5.66668ZM20.3335 5.33334C20.1494 5.33334 20.0002 5.48258 20.0002 5.66668V6.33334C20.0002 6.51744 20.1494 6.66668 20.3335 6.66668H21.0002C21.1843 6.66668 21.3335 6.51744 21.3335 6.33334V5.66668C21.3335 5.48258 21.1843 5.33334 21.0002 5.33334H20.3335ZM22.6668 5.66668C22.6668 5.48258 22.8161 5.33334 23.0002 5.33334H23.6668C23.8509 5.33334 24.0002 5.48258 24.0002 5.66668V6.33334C24.0002 6.51744 23.8509 6.66668 23.6668 6.66668H23.0002C22.8161 6.66668 22.6668 6.51744 22.6668 6.33334V5.66668ZM25.6668 5.33334C25.4827 5.33334 25.3335 5.48258 25.3335 5.66668V6.33334C25.3335 6.51744 25.4827 6.66668 25.6668 6.66668H26.3335C26.5176 6.66668 26.6668 6.51744 26.6668 6.33334V5.66668C26.6668 5.48258 26.5176 5.33334 26.3335 5.33334H25.6668ZM1.3335 13.6667C1.3335 13.4826 1.48273 13.3333 1.66683 13.3333H2.3335C2.51759 13.3333 2.66683 13.4826 2.66683 13.6667V14.3333C2.66683 14.5174 2.51759 14.6667 2.3335 14.6667H1.66683C1.48273 14.6667 1.3335 14.5174 1.3335 14.3333V13.6667ZM4.3335 13.3333C4.1494 13.3333 4.00016 13.4826 4.00016 13.6667V14.3333C4.00016 14.5174 4.1494 14.6667 4.3335 14.6667H5.00016C5.18426 14.6667 5.3335 14.5174 5.3335 14.3333V13.6667C5.3335 13.4826 5.18426 13.3333 5.00016 13.3333H4.3335ZM6.66683 13.6667C6.66683 13.4826 6.81607 13.3333 7.00016 13.3333H7.66683C7.85092 13.3333 8.00016 13.4826 8.00016 13.6667V14.3333C8.00016 14.5174 7.85092 14.6667 7.66683 14.6667H7.00016C6.81607 14.6667 6.66683 14.5174 6.66683 14.3333V13.6667ZM9.66683 13.3333C9.48273 13.3333 9.3335 13.4826 9.3335 13.6667V14.3333C9.3335 14.5174 9.48273 14.6667 9.66683 14.6667H10.3335C10.5176 14.6667 10.6668 14.5174 10.6668 14.3333V13.6667C10.6668 13.4826 10.5176 13.3333 10.3335 13.3333H9.66683ZM12.0002 13.6667C12.0002 13.4826 12.1494 13.3333 12.3335 13.3333H13.0002C13.1843 13.3333 13.3335 13.4826 13.3335 13.6667V14.3333C13.3335 14.5174 13.1843 14.6667 13.0002 14.6667H12.3335C12.1494 14.6667 12.0002 14.5174 12.0002 14.3333V13.6667ZM15.0002 13.3333C14.8161 13.3333 14.6668 13.4826 14.6668 13.6667V14.3333C14.6668 14.5174 14.8161 14.6667 15.0002 14.6667H15.6668C15.8509 14.6667 16.0002 14.5174 16.0002 14.3333V13.6667C16.0002 13.4826 15.8509 13.3333 15.6668 13.3333H15.0002ZM17.3335 13.6667C17.3335 13.4826 17.4827 13.3333 17.6668 13.3333H18.3335C18.5176 13.3333 18.6668 13.4826 18.6668 13.6667V14.3333C18.6668 14.5174 18.5176 14.6667 18.3335 14.6667H17.6668C17.4827 14.6667 17.3335 14.5174 17.3335 14.3333V13.6667ZM20.3335 13.3333C20.1494 13.3333 20.0002 13.4826 20.0002 13.6667V14.3333C20.0002 14.5174 20.1494 14.6667 20.3335 14.6667H21.0002C21.1843 14.6667 21.3335 14.5174 21.3335 14.3333V13.6667C21.3335 13.4826 21.1843 13.3333 21.0002 13.3333H20.3335ZM22.6668 13.6667C22.6668 13.4826 22.8161 13.3333 23.0002 13.3333H23.6668C23.8509 13.3333 24.0002 13.4826 24.0002 13.6667V14.3333C24.0002 14.5174 23.8509 14.6667 23.6668 14.6667H23.0002C22.8161 14.6667 22.6668 14.5174 22.6668 14.3333V13.6667ZM25.6668 13.3333C25.4827 13.3333 25.3335 13.4826 25.3335 13.6667V14.3333C25.3335 14.5174 25.4827 14.6667 25.6668 14.6667H26.3335C26.5176 14.6667 26.6668 14.5174 26.6668 14.3333V13.6667C26.6668 13.4826 26.5176 13.3333 26.3335 13.3333H25.6668Z" fill="white" fill-opacity="0.5"/>
<path d="M12.6535 8.52115C12.252 8.88694 12 9.41405 12 10C12 11.1046 12.8954 12 14 12V12C15.1046 12 16 11.1046 16 10C16 9.42511 15.7574 8.90686 15.3691 8.54203" stroke="#D80915" stroke-width="0.666667"/>
<rect x="13.3335" y="9.33334" width="1.33333" height="2.66667" rx="0.666667" fill="#D80915"/>
</g>
</svg>
